<svg width="2370" height="590" viewBox="0 0 2370 590" fill="none" xmlns="http://www.w3.org/2000/svg">
<path fill-rule="evenodd" clip-rule="evenodd" d="M206.627 126.16C198.708 126.825 189.082 129.45 178.285 133.888C164.743 139.453 163.08 139.918 150.72 141.59C133.975 143.856 124.803 148.367 115.885 158.723C109.636 165.981 107.716 170.867 99.8861 199.437C90.5567 233.481 90.3425 234.398 90.3425 240.313C90.3425 246.196 91.0844 248.397 94.3895 252.32C95.7057 253.884 96.2317 255.16 95.7207 255.552C95.2564 255.91 89.2096 261.243 82.2826 267.405C75.3555 273.566 67.3007 279.91 64.3831 281.501C51.7277 288.404 38.0428 286.969 17.4842 276.588C13.8607 274.757 10.7439 273.43 10.558 273.635C9.9662 274.291 18.4504 281.929 23.6352 285.41C29.2961 289.209 37.2934 293.035 42.8076 294.582C46.3178 295.567 46.4411 295.708 44.9032 296.953C44.0046 297.681 40.8253 299.14 37.8386 300.195C33.3506 301.779 29.4453 302.199 15.3203 302.618C-0.0067556 303.073 -1.48969 303.252 0.931026 304.363C8.77335 307.959 32.3545 309.895 40.9529 307.649C42.9018 307.14 44.4847 306.991 44.4714 307.318C44.4189 308.596 33.0855 317.662 24.633 323.187C14.3483 329.912 14.9235 329.48 15.4511 330.066C16.2489 330.95 28.971 325.611 37.4793 320.823C49.397 314.114 55.7097 308.878 63.8129 298.979C83.3321 275.135 99.2226 258.786 101.914 259.779C111.064 263.153 113.401 262.909 127.461 257.115C158.673 244.253 189.298 221.803 196.263 206.678C197.192 204.66 198.713 199.626 199.641 195.494C202.277 183.763 204.495 180.337 211.132 177.743C218.862 174.722 227.665 176.675 233.953 182.806C247.636 196.148 244.432 224.279 224.951 261.876C216.939 277.338 208.365 291.709 186.983 325.517C142.54 395.784 131.208 416.992 122.384 446.412C116.569 465.804 115.757 471.457 115.827 492.132C115.883 508.507 116.086 510.951 118.062 519.101C126.253 552.867 146.717 576.017 174.581 583.037C205.563 590.843 240.4 577.84 267.162 548.478C287.049 526.66 300.935 500.905 331.74 428.705C346.308 394.561 351.113 384.254 357.645 373.13C372.376 348.046 390.385 342.848 394.973 362.357C397.415 372.744 396.257 395.422 392.159 417.463C391.275 422.218 387.73 438.99 384.283 454.734C374.951 497.347 374.217 502.293 374.208 522.605C374.2 542.48 375.103 547.67 380.903 561.076C389.051 579.912 403.538 589.961 422.599 590C453.462 590.063 483.628 560.76 506.716 508.292C513.824 492.142 518.306 479.34 533.387 432.111C554.279 366.687 555.813 360.177 555.802 337C555.793 319.975 554.833 314.097 548.866 294.523C543.817 277.959 542.701 270.964 542.752 256.201C542.79 245.423 543.151 241.777 544.923 234.271C548.975 217.105 557.982 198.321 567.959 186.228C574.41 178.41 573.287 177.91 563.512 184.249C555.922 189.171 545.392 199.953 539.998 208.326C531.935 220.844 525.224 239.491 522.625 256.595C520.365 271.472 521.361 297.735 524.692 311.144C526.117 316.883 526.574 333.375 525.543 341.911C524.132 353.601 521.856 359.773 506.757 392.852C499.334 409.111 488.271 434.258 482.172 448.732C467.551 483.427 460.661 497.148 453.607 505.626C445.132 515.811 434.937 516.071 432.259 506.17C429.59 496.301 432.18 481.471 444.631 435.343C456.318 392.046 458.801 379.131 459.398 358.548C460.065 335.534 457.621 322.014 449.745 305.142C446.692 298.604 444.264 295.042 438.362 288.442C431.993 281.32 429.664 279.403 422.941 275.751C413.045 270.375 407.288 268.685 396.596 268.018C366.235 266.124 338.298 283.846 317.158 318.41C309.213 331.4 299.658 352.089 269.763 421.03C255.913 452.968 238.481 482.746 226.582 494.794C219.548 501.915 213.073 505.263 205.34 505.779C194.875 506.478 187.818 501.814 183.432 491.304C181.883 487.589 181.665 485.426 181.702 474.126C181.739 462.818 182.027 460.157 184.001 452.888C187.887 438.575 191.981 427.667 200.926 407.796C210.866 385.713 218.343 371.065 234.943 341.155C257.224 301.007 264.786 284.735 272.976 259.3C280.048 237.34 283.171 218.766 283.124 198.95C283.099 187.986 282.735 183.626 281.383 178.031C275.122 152.132 256.547 133.628 231.166 128.006C224.255 126.475 212.975 125.627 206.627 126.16ZM142.224 187.904C139.8 196.659 134.271 204.857 127.175 210.213L121.912 214.186L126.758 214.177C136.489 214.16 143.991 207.731 146.203 197.515C147.261 192.631 146.793 186.466 145.109 183.095C144.195 181.265 143.945 181.681 142.224 187.904Z" fill="white"/>
<path d="M677.4 482V141.2H761.4L855.48 405.2L949.56 141.2H1033.56V482H971.16V246.8L885.24 481.52H825.72L739.8 246.8V482H677.4ZM1175.44 487.76C1148.56 487.76 1126.96 481.68 1110.64 469.52C1094.32 457.04 1086.16 439.76 1086.16 417.68C1086.16 395.6 1093.04 378.32 1106.8 365.84C1120.56 353.36 1141.52 344.4 1169.68 338.96L1254.64 322.16C1254.64 303.92 1250.48 290.32 1242.16 281.36C1233.84 272.08 1221.52 267.44 1205.2 267.44C1190.48 267.44 1178.8 270.96 1170.16 278C1161.84 284.72 1156.08 294.48 1152.88 307.28L1090.48 304.4C1095.6 277.2 1108.08 256.4 1127.92 242C1147.76 227.28 1173.52 219.92 1205.2 219.92C1241.68 219.92 1269.2 229.2 1287.76 247.76C1306.64 266 1316.08 292.24 1316.08 326.48V419.6C1316.08 426.32 1317.2 430.96 1319.44 433.52C1322 436.08 1325.68 437.36 1330.48 437.36H1338.64V482C1336.72 482.64 1333.52 483.12 1329.04 483.44C1324.88 483.76 1320.56 483.92 1316.08 483.92C1305.52 483.92 1296.08 482.32 1287.76 479.12C1279.44 475.6 1273.04 469.68 1268.56 461.36C1264.08 452.72 1261.84 441.04 1261.84 426.32L1267.12 430.16C1264.56 441.36 1258.96 451.44 1250.32 460.4C1242 469.04 1231.44 475.76 1218.64 480.56C1205.84 485.36 1191.44 487.76 1175.44 487.76ZM1187.92 443.12C1201.68 443.12 1213.52 440.4 1223.44 434.96C1233.36 429.52 1241.04 422 1246.48 412.4C1251.92 402.8 1254.64 391.44 1254.64 378.32V363.92L1188.4 377.36C1174.64 380.24 1164.72 384.56 1158.64 390.32C1152.88 395.76 1150 402.96 1150 411.92C1150 421.84 1153.2 429.52 1159.6 434.96C1166.32 440.4 1175.76 443.12 1187.92 443.12ZM1378.54 482V225.68H1434.22L1436.14 288.56L1430.38 285.68C1433.26 271.92 1438.22 260.24 1445.26 250.64C1452.62 240.72 1461.42 233.2 1471.66 228.08C1482.22 222.64 1493.74 219.92 1506.22 219.92C1527.98 219.92 1545.58 226.16 1559.02 238.64C1572.46 250.8 1580.94 267.6 1584.46 289.04H1576.3C1579.18 274 1584.14 261.52 1591.18 251.6C1598.22 241.36 1607.02 233.52 1617.58 228.08C1628.46 222.64 1640.62 219.92 1654.06 219.92C1671.66 219.92 1686.86 223.76 1699.66 231.44C1712.46 238.8 1722.22 249.68 1728.94 264.08C1735.98 278.48 1739.5 296.24 1739.5 317.36V482H1678.06V333.2C1678.06 312.08 1674.38 296.24 1667.02 285.68C1659.98 275.12 1649.1 269.84 1634.38 269.84C1624.46 269.84 1615.98 272.4 1608.94 277.52C1601.9 282.64 1596.46 290.16 1592.62 300.08C1589.1 309.68 1587.34 321.36 1587.34 335.12V482H1530.22V335.12C1530.22 314 1527.02 297.84 1520.62 286.64C1514.22 275.44 1503.18 269.84 1487.5 269.84C1477.58 269.84 1469.1 272.4 1462.06 277.52C1455.34 282.64 1449.9 290.16 1445.74 300.08C1441.9 309.68 1439.98 321.36 1439.98 335.12V482H1378.54ZM1940.05 487.76C1922.13 487.76 1906.45 483.92 1893.01 476.24C1879.89 468.56 1869.65 457.84 1862.29 444.08L1860.85 482H1802.29V141.2H1863.73V262.16C1870.77 250.32 1880.85 240.4 1893.97 232.4C1907.09 224.08 1922.45 219.92 1940.05 219.92C1962.13 219.92 1981.17 225.52 1997.17 236.72C2013.49 247.6 2025.97 263.12 2034.61 283.28C2043.57 303.12 2048.05 326.64 2048.05 353.84C2048.05 381.04 2043.57 404.72 2034.61 424.88C2025.97 444.72 2013.49 460.24 1997.17 471.44C1981.17 482.32 1962.13 487.76 1940.05 487.76ZM1926.13 437.84C1943.73 437.84 1957.81 430.48 1968.37 415.76C1978.93 400.72 1984.21 380.08 1984.21 353.84C1984.21 327.28 1978.93 306.64 1968.37 291.92C1958.13 277.2 1944.21 269.84 1926.61 269.84C1913.49 269.84 1902.13 273.2 1892.53 279.92C1883.25 286.32 1876.05 295.76 1870.93 308.24C1866.13 320.72 1863.73 335.92 1863.73 353.84C1863.73 371.12 1866.13 386.16 1870.93 398.96C1876.05 411.44 1883.25 421.04 1892.53 427.76C1901.81 434.48 1913.01 437.84 1926.13 437.84ZM2173.88 487.76C2147 487.76 2125.4 481.68 2109.08 469.52C2092.76 457.04 2084.6 439.76 2084.6 417.68C2084.6 395.6 2091.48 378.32 2105.24 365.84C2119 353.36 2139.96 344.4 2168.12 338.96L2253.08 322.16C2253.08 303.92 2248.92 290.32 2240.6 281.36C2232.28 272.08 2219.96 267.44 2203.64 267.44C2188.92 267.44 2177.24 270.96 2168.6 278C2160.28 284.72 2154.52 294.48 2151.32 307.28L2088.92 304.4C2094.04 277.2 2106.52 256.4 2126.36 242C2146.2 227.28 2171.96 219.92 2203.64 219.92C2240.12 219.92 2267.64 229.2 2286.2 247.76C2305.08 266 2314.52 292.24 2314.52 326.48V419.6C2314.52 426.32 2315.64 430.96 2317.88 433.52C2320.44 436.08 2324.12 437.36 2328.92 437.36H2337.07V482C2335.16 482.64 2331.96 483.12 2327.48 483.44C2323.32 483.76 2319 483.92 2314.52 483.92C2303.96 483.92 2294.52 482.32 2286.2 479.12C2277.88 475.6 2271.48 469.68 2267 461.36C2262.52 452.72 2260.28 441.04 2260.28 426.32L2265.56 430.16C2263 441.36 2257.4 451.44 2248.76 460.4C2240.44 469.04 2229.88 475.76 2217.08 480.56C2204.28 485.36 2189.88 487.76 2173.88 487.76ZM2186.36 443.12C2200.12 443.12 2211.96 440.4 2221.88 434.96C2231.8 429.52 2239.48 422 2244.92 412.4C2250.36 402.8 2253.08 391.44 2253.08 378.32V363.92L2186.84 377.36C2173.08 380.24 2163.16 384.56 2157.08 390.32C2151.32 395.76 2148.44 402.96 2148.44 411.92C2148.44 421.84 2151.64 429.52 2158.04 434.96C2164.76 440.4 2174.2 443.12 2186.36 443.12Z" fill="white"/>
</svg>
