<svg width="1685" height="318" viewBox="0 0 1685 318" fill="none" xmlns="http://www.w3.org/2000/svg">
<path fill-rule="evenodd" clip-rule="evenodd" d="M15.239 31.25C23.62 48.438 58.358 119.977 92.435 190.226L154.394 317.952L190.966 317.976L227.538 318L257.011 257.4C273.222 224.071 286.849 196.823 287.294 196.85C287.739 196.876 301.324 224.034 317.483 257.199L346.862 317.5H383.582H420.302L493.55 167C533.836 84.225 568.616 12.787 570.838 8.25L574.879 0L544.637 0.0139999L514.394 0.0270004L449.477 133.764C413.773 207.319 384.292 267.821 383.964 268.214C383.444 268.834 318.855 136.85 318.113 133.653C317.959 132.988 332.247 102.867 349.863 66.718C367.48 30.57 381.894 0.763002 381.894 0.482002C381.894 0.201002 368.345 0.0900006 351.785 0.235001L321.675 0.5L304.598 35.763C295.206 55.158 287.247 70.683 286.913 70.263C286.579 69.844 278.71 53.863 269.427 34.75L252.549 0H222.614C199.054 0 192.792 0.266 193.204 1.25C193.492 1.938 207.94 31.607 225.311 67.182C242.682 102.758 256.887 132.458 256.878 133.182C256.87 133.907 242.041 164.823 223.926 201.883L190.989 269.267L180.398 247.383C174.573 235.348 145.219 174.763 115.168 112.75L60.53 0H30.265H0L15.239 31.25Z" fill="white"/>
<path d="M560.635 110.381C575.979 97.4931 598.012 88.8365 621.957 86.2868C625.168 85.9449 632.073 85.6232 637.301 85.572C673.156 85.2186 703.023 96.4963 720.986 117.171C726.141 123.106 732.928 134.402 732.332 136.058C732.071 136.785 694.258 151.835 692.693 151.835C692.387 151.835 691.72 150.618 691.209 149.13C687.297 137.724 673.329 128.321 655.041 124.78C646.286 123.085 629.28 123.207 619.997 125.03C606.334 127.714 594.376 133.769 589.338 140.555C586.38 144.538 584.253 151.737 584.978 155.314C586.902 164.818 598.061 172.734 618.068 178.789C622.565 180.149 633.6 182.782 642.589 184.638C651.578 186.494 660.859 188.497 663.214 189.089C681.835 193.776 699.469 200.925 708.753 207.552C719.607 215.3 727.548 226.429 731.014 238.747C733.291 246.843 733.305 260.325 731.045 268.175C726.621 283.54 714.719 296.192 696.181 305.239C674.644 315.749 645.443 319.898 615.725 316.669C581.511 312.951 556.766 299.26 544.505 277.262C542.577 273.804 541 270.665 541 270.286C541 269.708 579.56 254.254 581.001 254.254C581.264 254.254 581.482 254.66 581.486 255.156C581.504 257.216 585.385 263.521 588.78 267.005C595.255 273.648 605.855 278.821 618.365 281.441C626.283 283.099 644.435 283.057 653.095 281.359C679.146 276.25 692.666 263.013 687.77 247.406C686.691 243.968 685.559 242.368 681.63 238.727C673.458 231.156 660.898 226.499 638.694 222.811C603.447 216.955 588.776 213.33 575.8 207.268C559.398 199.605 548.126 187.376 543.301 172.011C540.875 164.282 540.285 147.695 542.156 139.821C544.773 128.809 551.55 118.011 560.635 110.381Z" fill="white"/>
<path fill-rule="evenodd" clip-rule="evenodd" d="M1333.06 83.4382C1305.03 86.0009 1279.29 97.3536 1257.32 116.841C1230.5 140.623 1217.85 167.448 1217.85 200.524C1217.85 221.588 1222.39 238.246 1232.82 255.518C1245.39 276.333 1267.28 295.547 1290.91 306.508C1318.31 319.221 1354.37 321.581 1384.24 312.615C1392.6 310.103 1406.81 303.68 1414.55 298.911L1421.02 294.918L1421.01 266.294L1421 237.669L1419.31 240.194C1409.58 254.739 1399.73 263.768 1385.99 270.737C1363.26 282.267 1334.37 283.297 1310.85 273.413C1303.03 270.127 1293.25 263.885 1286.32 257.741C1270.07 243.364 1260.92 226.384 1259.19 207.443C1257.04 183.843 1265.53 162.904 1284.32 145.444C1299.88 130.993 1317.52 123.027 1337.93 121.238C1369.29 118.489 1399.18 132.041 1416.51 156.864L1421.02 163.337V134.734V106.13L1414.55 102.137C1402.53 94.7304 1385.47 88.0046 1372.37 85.5133C1360.47 83.2493 1344.4 82.4011 1333.06 83.4382ZM757.235 87.0835C756.952 87.7658 753.849 96.5292 750.339 106.558L743.958 124.791H789.799H835.641V219.998V315.205H856.659H877.677V219.998V124.791H923.669C960.132 124.791 969.589 124.604 969.311 123.89C969.118 123.394 966.024 114.633 962.435 104.421L955.909 85.853L856.829 85.848C763.846 85.8429 757.717 85.9194 757.235 87.0835ZM994.085 178.002C967.558 228.67 940.517 280.269 933.993 292.666L922.13 315.205H945.693H969.256L980.098 294.31L990.939 273.414L1071.05 273.573L1151.16 273.733L1161.83 294.289L1172.5 314.845L1196.04 315.036C1215.75 315.196 1219.52 315.065 1219.17 314.235C1218.95 313.691 1191.87 262.079 1159.01 199.544L1099.25 85.8429L1070.78 85.8602L1042.32 85.8776L994.085 178.002ZM1467.73 200.524V315.205H1488.74H1509.75L1509.95 269.82L1510.15 224.434L1566.08 269.82L1622 315.205H1654.01C1681.13 315.205 1685.85 315.055 1684.89 314.219C1684.26 313.676 1651.78 287.37 1612.71 255.762C1573.65 224.153 1541.68 198.063 1541.68 197.785C1541.68 197.506 1572.46 172.287 1610.06 141.741L1678.44 86.2036L1646.64 86.0153L1614.85 85.8271L1562.5 128.339L1510.15 170.852L1509.95 128.347L1509.75 85.8429H1488.74H1467.73V200.524ZM1062.59 136.782C1058.06 145.46 1044.77 170.898 1033.07 193.311L1011.8 234.063L1070.58 234.248C1102.91 234.349 1129.52 234.285 1129.71 234.105C1129.91 233.925 1116.74 208.403 1100.45 177.39L1070.82 121.005L1062.59 136.782Z" fill="white"/>
</svg>
